<svg width="129" height="70" fill="none"
    xmlns="http://www.w3.org/2000/svg">
    <g clip-path="url(#clip0)">
        <path fill-rule="evenodd" clip-rule="evenodd" d="M20.715 44.923l-.269-.268c-2.421-1.34-5.111-1.207-7.533.268h7.802zm2.153-16.628v.268c0 .134-.135.67-.27 1.341-.403 1.475-1.076 2.95-2.017 4.157-1.883 2.414-4.708 3.621-7.802 4.023-1.48.134-2.96 0-4.305-.134-.941-.134-1.883-.268-2.824-.536-.538-.134-1.076.134-1.211.67-.135.537.135 1.073.538 1.341 1.21.537 2.69.67 4.036.805.672 0 1.48.134 2.152.134h1.614c4.17-.402 7.802-2.28 10.089-6.034v10.996h1.883V20.65c0-1.475-.538-3.218-1.749-4.29-.538-.403-1.076-.806-1.749-1.074-2.824-.938-5.65.268-6.994 2.816-2.96.134-5.65 1.341-6.86 4.157-1.211.403-2.422 1.207-3.229 2.28-1.076 1.341-1.345 2.95-1.076 4.694-1.883 1.743-2.825 4.29-2.018 6.839C.404 36.877 0 38.218 0 39.693c0 1.342.404 2.683 1.21 3.89 0 .536-.134.938 0 1.474h8.879c.269-.134.538-.268.941-.536l.538.536h.942c.404-.402.404-1.072-.135-1.34a1.619 1.619 0 01-.672-.671c-.27-.402-.27-.805-.27-1.207.135-.402-.134-.804-.672-.939-.403-.134-.807.269-.941.67 0 .403-.135.806 0 1.208-1.75 1.073-4.44 2.011-6.323.67-.403-.268-.672-.67-.941-1.072 0-.135-.135-.135-.135-.269-.941-1.609-.941-3.352 0-4.961.27-.403.404-.537.807-.94-.269-.804-.538-1.34-.538-2.145 0-1.072.404-2.011 1.076-2.816.673 1.207 1.615 2.012 2.96 2.548 1.345.537 3.094.67 5.111.268.942.939 2.287 1.475 3.632 1.61.807.134 1.345-.94.942-1.61 0-.402-.27-.536-.538-.536-1.21-.134-2.421-.536-2.96-1.743-.403-.67-.403-1.61-.269-2.414l1.211-.402c.807-.403.404-1.61-.404-1.476-.134 0-.134 0-.269.135-.268.134-.807.268-1.076.268-.403 0-.807-.134-1.076-.537-.269-.268-.807-.402-1.076 0-.269.268-.269.805 0 1.073.27.268.538.537.942.67-.135.94-.135 2.012.269 2.95-1.749.269-3.767 0-4.977-1.474a4.95 4.95 0 01-.673-1.475c-.672-2.012-.134-3.621 1.614-4.694.404-.268.942-.536 1.345-.536l.539-.134.134-.537c.807-2.011 2.556-3.084 4.708-3.218-.135 1.475.27 3.084 1.21 4.291.942 1.207 2.422 1.877 3.902 2.012.134.268.269.67.538.938.269.402.807.402 1.076.134s.403-.804.134-1.073c0 0-.134-.134-.269-.402a1.705 1.705 0 010-1.609c.404-.536 0-1.341-.672-1.341a1.03 1.03 0 00-.673.268c-.134.268-.403.537-.403.939-1.076-.268-2.153-.805-2.69-1.878-.539-.938-.539-2.145-.27-3.084.673-2.011 2.69-2.95 4.843-2.28 1.345.403 1.883 1.744 2.018 2.95v.403l.269 8.046z" fill="#000"/>
        <path fill-rule="evenodd" clip-rule="evenodd" d="M25.154 19.445c.27-1.073.807-2.012 1.884-2.414 2.017-.67 4.035.134 4.842 2.28.135.67.27 1.474.135 2.145-.135.939-.808 2.414-2.96 2.95-.134-.402-.269-.67-.403-1.073-.27-.402-.673-.536-1.076-.268-.404.268-.404.805-.27 1.073.404.67.27 1.475-.134 2.145-.269.403-.134.805.135 1.073.403.268.807.134 1.076-.134 0 0 .269-.402.538-.939 1.345-.134 2.69-.67 3.632-1.743 1.21-1.207 1.614-2.95 1.48-4.693 1.479.134 3.766.804 4.707 3.218l.27.537c.134 0 .403 0 .537.134.27 0 3.498.67 3.363 5.364a7.619 7.619 0 01-1.48 3.889c-1.075 1.34-3.362 2.145-5.11 1.877.268-1.073.268-2.146.134-2.682.403-.134.672-.536.941-.805.27-.402.27-.804-.134-1.073-.27-.268-.807-.268-1.076.135-.404.536-1.077.67-1.75.402-.268-.134-.403-.268-.672-.268-.807 0-1.076 1.073-.403 1.475 0 0 .538.268 1.21.402.135.402.135 1.743-.403 2.682-.538.805-1.48 1.341-2.825 1.475h-.134c-1.75-.939-3.094-2.145-4.17-3.889-1.346-2.145-1.75-4.157-1.884-4.425v-.134-7.912c-.134.134-.134-.268 0-.804zm20.178 22.662c-.135 0-.135 0 0 0-.135.134-.942 1.073-2.153 1.61-1.748.804-3.497.268-5.111-.94-.404-.536-1.21-.401-1.614.269-.673.805-1.75 1.341-2.825 1.341-.673 0-1.48-.268-2.152-.67-.808-.403-1.615.402-1.346 1.206h7.264l.135-.134c.134 0 .134.134.269.134h9.012v-1.609c1.48-2.28 1.345-4.425.942-5.766-.27-.805-.673-1.61-.942-2.012.942-2.547.135-5.095-1.883-6.973 0-3.218-1.345-4.961-2.421-5.766a5.304 5.304 0 00-2.152-1.073c-1.211-2.682-3.901-4.023-6.86-4.023-1.346-2.682-4.17-3.755-6.995-2.816-1.48.537-2.556 1.61-3.094 3.219-.404 1.072-.404 2.011-.404 2.145v24.674h1.883V33.525c2.287 3.755 5.65 5.9 10.089 6.303.538 0 .942-.403 1.076-.94 0-.535-.403-1.072-.942-1.072-.403 0-.672-.134-1.076-.134.404-.268.673-.536 1.076-.939 2.69.67 5.92-.402 7.533-2.548.807-1.072 1.345-2.145 1.614-3.084.673.939 1.077 2.28.27 4.157l-.135.805c.135.134.269.402.538.536.135.134.673.805.942 1.743a5.316 5.316 0 01-.538 3.755z" fill="#000"/>
        <path fill-rule="evenodd" clip-rule="evenodd" d="M41.969 32.452H27.576a2.694 2.694 0 00-2.69 2.682v2.012h-2.018v-2.012a2.694 2.694 0 00-2.69-2.682H5.917a2.694 2.694 0 00-2.69 2.682l1.346 7.644a2.694 2.694 0 002.69 2.682h13.048c1.48 0 2.69-1.207 2.69-2.682v-3.084h2.018v3.084a2.694 2.694 0 002.69 2.682h13.048c1.48 0 2.69-1.207 2.69-2.682l1.346-7.644c-.135-1.475-1.346-2.682-2.825-2.682zm-21.12 10.326c0 .268-.268.536-.537.536H7.264c-.27 0-.538-.268-.538-.536L5.38 35.134c0-.268.269-.536.538-.536h14.393c.269 0 .538.268.538.536v7.644zm20.313 0c0 .268-.27.536-.538.536H27.576c-.27 0-.538-.268-.538-.536v-7.644c0-.268.269-.536.538-.536h14.393c.269 0 .538.268.538.536l-1.345 7.644z" fill="#ED7F2D"/>
        <path fill-rule="evenodd" clip-rule="evenodd" d="M40.758 45.728H27.71c-1.614 0-2.96-1.341-2.96-2.95v-2.682h-1.344v2.682c0 1.609-1.345 2.95-2.96 2.95H7.264c-1.614 0-2.96-1.341-2.96-2.95L2.96 35.134c0-1.61 1.345-2.95 2.96-2.95h14.393c1.614 0 2.96 1.34 2.96 2.95v1.743h1.344v-1.743c0-1.61 1.345-2.95 2.96-2.95h14.393c1.614 0 2.96 1.34 2.96 2.95l-1.346 7.644c0 1.609-1.21 2.95-2.825 2.95zm-18.16-6.303h2.69v3.353c0 1.207 1.077 2.28 2.288 2.28h13.048c1.21 0 2.286-1.073 2.286-2.28l1.346-7.644c0-1.207-1.077-2.28-2.287-2.28H27.576c-1.211 0-2.287 1.073-2.287 2.28v2.414h-2.69v-2.414c0-1.207-1.077-2.28-2.287-2.28H5.919c-1.211 0-2.287 1.073-2.287 2.28l1.345 7.644c0 1.207 1.076 2.28 2.287 2.28h13.048c1.21 0 2.287-1.073 2.287-2.28v-3.353zm18.16 4.157H27.71c-.538 0-.807-.402-.807-.804v-7.644c0-.536.404-.804.807-.804h14.393c.538 0 .807.402.807.804l-1.345 7.644c0 .536-.403.804-.807.804zm-13.182-8.716c-.135 0-.135.134-.135.134v7.644c0 .134.135.134.135.134h13.048c.134 0 .134-.134.134-.134L42.103 35c0-.134-.134-.134-.134-.134H27.576zm-7.264 8.716H7.264c-.404 0-.807-.402-.807-.804l-1.345-7.644c0-.536.403-.804.807-.804h14.393c.538 0 .807.402.807.804v7.644c0 .402-.27.804-.807.804zM5.784 35.134l1.345 7.644c-.134.134 0 .134.135.134h13.048c.134 0 .134-.134.134-.134v-7.644c0-.134-.134-.134-.134-.134H5.919c-.135-.134-.135 0-.135.134z" fill="#fff"/>
        <path d="M127.789 38.084h-3.228V18.908h3.228v19.176zm0-23.87c0 .403-.134.805-.403 1.207-.269.269-.673.537-1.076.537-.404 0-.807-.134-1.211-.402-.269-.269-.538-.671-.538-1.207 0-.403.134-.805.538-1.207.269-.268.673-.537 1.211-.537.403 0 .807.134 1.076.537.269.268.403.67.403 1.072zm-6.591 7.912c.135.67.269 1.341.269 2.146v1.61h-3.228v-1.61c0-.67-.135-1.073-.538-1.61-.269-.401-.807-.67-1.48-.67-.673 0-1.076.268-1.48.67-.269.403-.403.94-.538 1.61v8.448c0 .67.135 1.073.538 1.61.269.402.807.67 1.48.67.673 0 1.076-.268 1.48-.67.269-.403.403-.94.538-1.61v-1.609h3.228v1.61c0 .804-.134 1.474-.269 2.145-.403.939-1.076 1.743-1.883 2.414-.807.67-1.883.938-2.959.938-1.077 0-2.018-.268-2.96-.938-.807-.67-1.479-1.341-1.883-2.414-.134-.67-.269-1.341-.269-2.146v-8.448c0-.805.135-1.475.269-2.146a5.246 5.246 0 011.883-2.28c.807-.536 1.883-.938 2.96-.938 1.076 0 2.017.268 2.959.939a5.24 5.24 0 011.883 2.28zm-12.913 15.958h-3.229V24.272c0-.67-.134-1.073-.538-1.61-.269-.401-.807-.67-1.479-.67h-2.018V37.95h-3.228V18.908h5.246c1.076 0 2.017.268 2.959.939a5.24 5.24 0 011.883 2.28c.135.67.269 1.34.269 2.145v13.812h.135zm-16.546-3.218V28.83c-.672-.134-1.21-.268-1.883-.268-.538 0-1.076.134-1.345.537-.27.402-.538.938-.538 1.609v1.609c0 .67.134 1.341.538 1.743.404.537.807.67 1.48.67h1.748v.135zm3.229 3.218h-5.112c-1.21 0-2.152-.402-3.094-1.073-.941-.67-1.48-1.609-1.883-2.681-.135-.403-.135-1.341-.135-2.548 0-1.341 0-2.146.135-2.548.404-1.073.942-2.012 1.883-2.682.942-.67 1.883-1.073 3.094-1.073.538 0 1.21.134 1.883.268v-1.61c0-.401-.134-.938-.538-1.34-.269-.402-.807-.67-1.48-.67-.672 0-1.076.268-1.48.67-.268.402-.403.939-.537 1.61h-2.96c0-.805.135-1.476.27-2.146a5.244 5.244 0 011.883-2.28c.807-.537 1.883-.939 2.96-.939 1.075 0 2.017.268 2.958.939a5.242 5.242 0 011.884 2.28c.134.67.269 1.34.269 2.145v13.678zM78.153 32.72v-8.448c0-.67-.134-1.073-.538-1.61-.269-.401-.807-.67-1.48-.67-.672 0-1.076.268-1.48.67-.268.403-.403.94-.537 1.61v8.448c0 .67.134 1.073.538 1.61.269.402.807.67 1.48.67.672 0 1.076-.268 1.48-.67.403-.537.537-.94.537-1.61zm3.229 9.119c0 .805-.135 1.475-.27 2.146-.403.938-1.075 1.743-1.883 2.413-.807.67-1.883.94-2.959.94s-2.018-.27-2.96-.94c-.806-.67-1.479-1.34-1.883-2.413-.134-.67-.269-1.341-.269-2.146v-1.61h3.229v1.61c0 .67.134 1.073.538 1.61.269.401.807.67 1.48.67.672 0 1.076-.269 1.48-.67.268-.403.403-.94.537-1.61v-4.023c-.672.268-1.345.402-1.883.402-1.076 0-2.018-.268-2.96-.938-.806-.67-1.479-1.341-1.882-2.414-.135-.67-.27-1.341-.27-2.146v-8.448c0-.805.135-1.475.27-2.146a5.243 5.243 0 011.883-2.28c.807-.536 1.883-.938 2.96-.938 1.075 0 2.017.268 2.958.939a5.242 5.242 0 011.884 2.28c.134.67.269 1.34.269 2.145v17.567h-.27zm-13.317-3.755h-3.229V18.908h3.229v19.176zm0-23.87c0 .403-.135.805-.404 1.207-.269.269-.672.537-1.076.537s-.807-.134-1.21-.402c-.27-.269-.539-.671-.539-1.207 0-.403.135-.805.538-1.207.27-.268.673-.537 1.211-.537.404 0 .807.134 1.076.537.27.268.404.67.404 1.072zm-9.82 18.506v-8.448c0-.67-.134-1.073-.538-1.61-.27-.401-.807-.67-1.48-.67-.672 0-1.076.268-1.48.67-.268.403-.403.94-.537 1.61v8.448c0 .67.134 1.073.538 1.61.269.402.807.67 1.48.67.672 0 1.075-.268 1.479-.67.404-.537.538-.94.538-1.61zm3.228 9.119c0 .805-.134 1.475-.269 2.146-.403.938-1.076 1.743-1.883 2.413-.807.67-1.883.94-2.96.94-1.075 0-2.017-.27-2.958-.94-.808-.67-1.48-1.34-1.884-2.413-.134-.67-.269-1.341-.269-2.146v-1.61h3.229v1.61c0 .67.134 1.073.538 1.61.269.401.807.67 1.48.67.672 0 1.075-.269 1.479-.67.269-.403.404-.94.538-1.61v-4.023c-.672.268-1.345.402-1.883.402-1.076 0-2.018-.268-2.96-.938-.807-.67-1.48-1.341-1.883-2.414-.134-.67-.269-1.341-.269-2.146v-8.448c0-.805.135-1.475.27-2.146a5.243 5.243 0 011.883-2.28c.807-.536 1.883-.938 2.959-.938s2.018.268 2.96.939a5.243 5.243 0 011.882 2.28c.135.67.27 1.34.27 2.145v17.567h-.27zM40.758 19.042l-.942-.536 3.901-6.705-.941-.537.538-1.072 2.018 1.206-4.574 7.644zM23.271 11.667l-1.21.804-6.054-7.778-1.076.805-.941-1.073 2.286-1.743 6.995 8.985z" fill="#ED7F2D"/>
        <path d="M126.579 61.015V56.59c-.404-.134-.942-.268-1.345-.268-.404 0-.808.134-1.077.402-.269.268-.403.67-.403 1.207v1.207c0 .536.134.939.403 1.34.269.403.673.537 1.077.537h1.345zm2.421 2.28h-3.766a3.657 3.657 0 01-2.287-.805c-.673-.536-1.076-1.207-1.345-2.011-.135-.268-.135-.939-.135-1.877 0-.94 0-1.61.135-1.878.269-.804.672-1.475 1.345-2.011.672-.537 1.345-.805 2.287-.805.403 0 .941.134 1.345.268V52.97c0-.402-.135-.67-.404-.938-.269-.268-.538-.403-1.076-.403s-.807.135-1.076.403-.269.67-.404 1.072h-2.286c0-.536.134-1.072.269-1.609.269-.67.807-1.207 1.479-1.743.673-.402 1.345-.67 2.153-.67.807 0 1.479.268 2.152.67.672.402 1.076.939 1.479 1.743.135.403.269.939.269 1.61v10.191H129zm-9.82 0h-2.286V49.349h2.286v13.946zm0-17.433c0 .268-.134.67-.269.805-.269.268-.538.402-.807.402-.403 0-.672-.134-.807-.402-.269-.269-.403-.537-.403-.805 0-.402.134-.67.403-.805.269-.268.538-.402.807-.402.404 0 .673.134.807.402.135.135.269.403.269.805zm-4.573 17.433h-2.287V53.238c0-.403-.134-.805-.403-1.073-.269-.268-.538-.402-1.077-.402h-1.479v11.666h-2.287V49.35h3.766c.808 0 1.48.268 2.153.67.672.403 1.076.939 1.479 1.744.135.402.269.938.269 1.609v9.923h-.134zm-12.106-2.28V56.59c-.404-.134-.942-.268-1.346-.268-.403 0-.807.134-1.076.402s-.403.67-.403 1.207v1.207c0 .536.134.939.403 1.34.269.403.673.537 1.076.537h1.346zm2.421 2.28h-3.767a3.66 3.66 0 01-2.286-.805c-.673-.536-1.076-1.207-1.346-2.011-.134-.268-.134-.939-.134-1.877 0-.94 0-1.61.135-1.878.269-.804.672-1.475 1.345-2.011.672-.537 1.345-.805 2.286-.805.404 0 .942.134 1.346.268V52.97c0-.402-.135-.67-.404-.938-.269-.268-.538-.403-1.076-.403s-.807.135-1.076.403c-.27.268-.27.67-.404 1.072h-2.287c0-.536.135-1.072.27-1.609.269-.67.806-1.207 1.48-1.743.672-.402 1.344-.67 2.151-.67.807 0 1.48.268 2.153.67.672.402 1.076.939 1.479 1.743.135.403.269.939.269 1.61v10.191h-.134zm-9.82-3.62c0 .536-.134 1.072-.269 1.34-.672 1.61-1.749 2.28-3.228 2.28-.942 0-1.749-.402-2.287-1.207-.672.805-1.345 1.207-2.287 1.207-1.614 0-2.69-.805-3.228-2.28-.135-.402-.27-.804-.27-1.34V49.348h2.288v10.325c0 .939.403 1.341 1.21 1.341.807 0 1.21-.402 1.21-1.34V49.348h2.288v10.325c0 .939.403 1.341 1.21 1.341.807 0 1.21-.402 1.21-1.34V49.348h2.288v10.325h-.135zm-16.276-.269v-6.168c0-.403-.135-.805-.404-1.073-.269-.268-.538-.402-1.076-.402s-.807.134-1.076.402-.269.67-.403 1.073v6.168c0 .402.134.805.403 1.207.27.268.538.402 1.076.402s.807-.134 1.076-.402c.27-.402.404-.805.404-1.207zm2.287 0c0 .537-.135 1.073-.27 1.61-.269.67-.806 1.206-1.48 1.743-.672.402-1.344.67-2.151.67-.807 0-1.48-.268-2.153-.67-.672-.403-1.076-1.073-1.48-1.744a4.988 4.988 0 01-.268-1.609v-6.168c0-.537.134-1.073.269-1.61.269-.67.807-1.206 1.48-1.743.672-.402 1.345-.67 2.152-.67.807 0 1.48.268 2.152.67.672.402 1.076.939 1.48 1.743.134.403.269.94.269 1.61v6.168zm-9.82 3.889h-2.287V53.238c0-.403-.134-.805-.403-1.073-.27-.268-.538-.402-1.076-.402h-.942v11.666h-2.287V51.763h-2.287v11.666h-2.286V49.35h7.936c.807 0 1.48.268 2.152.67.673.403 1.076.939 1.48 1.744.134.402.269.938.269 1.609v9.923h-.269zm-16.142-2.28V56.59c-.403-.134-.941-.268-1.345-.268-.403 0-.807.134-1.076.402-.27.268-.404.67-.404 1.207v1.207c0 .536.135.939.404 1.34.269.403.673.537 1.076.537h1.345zm2.287 2.28h-3.767a3.66 3.66 0 01-2.286-.805c-.673-.536-1.076-1.207-1.345-2.011-.135-.268-.135-.939-.135-1.877 0-.94 0-1.61.135-1.878.269-.804.672-1.475 1.345-2.011.672-.537 1.345-.805 2.287-.805.403 0 .941.134 1.345.268V52.97c0-.402-.135-.67-.404-.938-.269-.268-.538-.403-1.076-.403s-.807.135-1.076.403c-.27.268-.27.67-.404 1.072h-2.286c0-.536.134-1.072.269-1.609.269-.67.807-1.207 1.48-1.743.672-.402 1.344-.67 2.151-.67.808 0 1.48.268 2.153.67.672.402 1.076.939 1.48 1.743.134.403.268.939.268 1.61v10.191h-.134zm-14.931 0V53.238c0-.403.134-.805.403-1.207.27-.268.538-.403 1.077-.403.538 0 .806.135 1.076.403.269.268.269.67.403 1.207v1.206h2.287v-1.206c0-.537-.135-1.073-.27-1.61-.268-.67-.806-1.206-1.479-1.743-.672-.402-1.345-.67-2.152-.67-.807 0-1.48.268-2.152.67-.673.402-1.076 1.073-1.48 1.743a4.988 4.988 0 00-.269 1.61v10.057h2.556zm-7.13-3.889v-6.168c0-.403-.134-.805-.403-1.073-.27-.268-.538-.402-1.076-.402s-.807.134-1.076.402c-.27.268-.27.67-.404 1.073v6.168c0 .402.135.805.404 1.207.269.268.538.402 1.076.402s.807-.134 1.076-.402c.269-.402.404-.805.404-1.207zm2.287 6.571c0 .536-.134 1.073-.269 1.61-.269.67-.807 1.206-1.48 1.742-.672.403-1.345.671-2.152.671-.807 0-1.48-.268-2.152-.67-.672-.403-1.076-1.073-1.48-1.744a4.988 4.988 0 01-.269-1.609V64.77h2.287v1.207c0 .402.135.805.404 1.207.269.268.538.402 1.076.402s.807-.134 1.076-.402.269-.67.404-1.207v-2.95c-.539.268-.942.268-1.346.268-.807 0-1.48-.268-2.152-.67-.672-.403-1.076-1.073-1.48-1.744a4.988 4.988 0 01-.269-1.609v-6.169c0-.536.135-1.072.27-1.609.268-.67.806-1.207 1.48-1.743.672-.402 1.344-.67 2.151-.67.807 0 1.48.268 2.153.67.672.402 1.076.939 1.48 1.743.134.403.268.939.268 1.61v12.873zm-11.972-6.57v-6.17c0-.402-.134-.804-.403-1.072-.27-.268-.538-.402-1.076-.402s-.807.134-1.076.402c-.27.268-.27.67-.404 1.073v6.168c0 .402.135.805.404 1.207.269.268.538.402 1.076.402s.807-.134 1.076-.402c.269-.402.403-.805.403-1.207zm2.422 0c0 .536-.135 1.072-.27 1.608-.268.67-.806 1.207-1.479 1.744-.673.402-1.345.67-2.152.67-.807 0-1.48-.268-2.152-.67-.673-.403-1.077-1.073-1.48-1.744a4.988 4.988 0 01-.27-1.609v-6.168c0-.537.135-1.073.27-1.61.269-.67.807-1.206 1.48-1.743.672-.402 1.345-.67 2.152-.67.807 0 1.48.268 2.152.67.673.402 1.076.939 1.48 1.743.134.403.269.94.269 1.61v6.168zm-14.932 3.888V53.238c0-.403.135-.805.404-1.207.27-.268.538-.403 1.076-.403s.807.135 1.076.403c.27.268.27.67.404 1.207v1.206h2.287v-1.206c0-.537-.135-1.073-.27-1.61-.268-.67-.806-1.206-1.48-1.743-.672-.402-1.344-.67-2.151-.67-.807 0-1.48.268-2.153.67-.672.402-1.076 1.073-1.48 1.743a4.988 4.988 0 00-.268 1.61v10.057h2.555zm-6.994-3.889v-6.168c0-.403-.135-.805-.404-1.073-.269-.268-.538-.402-1.076-.402H3.363v9.386h1.345c.538 0 .807-.134 1.076-.402.27-.536.404-.939.404-1.34zm2.421 0c0 .537-.135 1.073-.269 1.61-.27.67-.807 1.206-1.345 1.608-.673.403-1.345.671-2.152.671H3.497v6.57H1.211V49.35h3.632c.807 0 1.48.268 2.152.67.538.403 1.076.939 1.345 1.61.134.402.269.938.269 1.609v6.168zM9.253 11.89c-.243-.567-.38-1.047-.413-1.44-.031-.397.027-.738.176-1.024.15-.286.4-.503.75-.652a1.53 1.53 0 01.744-.133c.238.02.462.1.673.243.21.14.411.335.604.585.192.248.39.61.594 1.085.242.562.379 1.041.412 1.437.033.393-.026.734-.176 1.023-.148.285-.398.503-.75.652-.462.198-.896.187-1.302-.031-.488-.264-.925-.845-1.312-1.745zm.606-.259c.338.787.655 1.272.95 1.455.297.18.58.212.851.097.27-.116.441-.343.512-.683.073-.34-.06-.903-.396-1.688-.34-.788-.657-1.273-.954-1.453-.294-.181-.58-.213-.854-.096a.818.818 0 00-.5.62c-.078.379.053.962.39 1.748zM30.552 3.638c.203-.809.448-1.438.736-1.889.292-.453.634-.772 1.028-.958.397-.186.844-.217 1.342-.093.367.092.67.246.91.465.24.215.416.485.526.81.111.321.168.695.17 1.122.003.424-.08.975-.25 1.653-.2.802-.446 1.43-.734 1.884-.288.45-.63.77-1.028.958-.394.186-.841.217-1.342.093-.66-.165-1.119-.53-1.377-1.096-.309-.682-.302-1.665.02-2.95zm.864.215c-.281 1.122-.338 1.903-.17 2.341.172.436.45.702.837.798.385.096.756-.01 1.11-.318.358-.308.678-1.021.958-2.141.282-1.126.337-1.907.165-2.343-.169-.435-.45-.701-.841-.799-.386-.096-.735-.01-1.047.26-.394.345-.731 1.079-1.012 2.202z" fill="#000"/>
    </g>
    <defs>
        <clipPath id="clip0">
            <path d="M0 0h129v70H0V0z" fill="#fff"/>
        </clipPath>
    </defs>
</svg>
